<svg xmlns="http://www.w3.org/2000/svg" xmlns:xlink="http://www.w3.org/1999/xlink" width="3000" zoomAndPan="magnify" viewBox="0 0 2250 2250.000011" height="3000" preserveAspectRatio="xMidYMid meet" version="1.0"><defs><clipPath id="d4de549cfd"><path d="M 1072 1723 L 2077.464844 1723 L 2077.464844 2214 L 1072 2214 Z M 1072 1723 " clip-rule="nonzero"/></clipPath><clipPath id="9286cf58b6"><path d="M 920 22.277344 L 1824 22.277344 L 1824 2076 L 920 2076 Z M 920 22.277344 " clip-rule="nonzero"/></clipPath></defs><g clip-path="url(#d4de549cfd)"><path fill="#a8c082" d="M 1072.953125 2212.773438 C 1164.789062 2036.820312 1315.816406 1892.433594 1495.703125 1808.609375 C 1675.597656 1724.789062 1883.273438 1702.027344 2077.042969 1744.898438 C 1839.515625 2042.648438 1453.554688 2227.011719 1072.953125 2212.773438 " fill-opacity="1" fill-rule="nonzero"/></g><path fill="#a8c082" d="M 767.769531 2084.113281 C 874.695312 1797.621094 884.480469 1475.835938 795.15625 1183.375 C 705.839844 890.910156 517.949219 629.515625 269.210938 451.675781 C 172.886719 1030.589844 359.347656 1662.722656 767.769531 2084.113281 " fill-opacity="1" fill-rule="nonzero"/><g clip-path="url(#9286cf58b6)"><path fill="#a8c082" d="M 984.726562 2075.632812 C 879.414062 1692.898438 903.765625 1275.695312 1052.890625 907.816406 C 1202.007812 539.933594 1475.015625 223.550781 1817.085938 22.214844 C 1875.0625 781.839844 1561.277344 1577.75 984.726562 2075.632812 " fill-opacity="1" fill-rule="nonzero"/></g></svg>